<svg width="17" height="16" viewBox="0 0 17 16" fill="none" xmlns="http://www.w3.org/2000/svg">
<path d="M10.9938 6.44154L10.9938 6.44144L10.9891 6.44102C10.088 6.36304 9.21809 6.31997 8.40501 6.28152C8.35497 6.27915 8.30515 6.2768 8.25556 6.27447C7.49843 6.23877 6.79381 6.20555 6.15898 6.14978C5.48222 6.09032 4.89028 6.00564 4.40351 5.86705C3.91604 5.72827 3.54409 5.53818 3.29734 5.27493C3.22941 5.20245 3.13548 5.12777 3.04758 5.10076C3.00503 5.08768 2.93292 5.07688 2.8722 5.12559C2.812 5.17387 2.80315 5.24869 2.8065 5.30596C2.81013 5.36803 2.79198 5.46009 2.75681 5.52883C2.73938 5.5629 2.72207 5.58269 2.70959 5.5917C2.70097 5.59793 2.69834 5.59718 2.69556 5.5964C2.6954 5.59635 2.69523 5.5963 2.69506 5.59626C2.39656 5.51493 2.03665 5.3743 1.72346 5.16015C1.57361 5.05768 1.38016 5.0527 1.23878 5.11401C1.16695 5.14515 1.09954 5.19741 1.0619 5.2735C1.02257 5.35297 1.02279 5.44439 1.06311 5.53487C1.40271 6.29687 2.22541 7.03471 3.84434 7.11998L3.8495 7.12025C3.89462 7.12262 3.95216 7.12563 4.00941 7.13515C4.07151 7.14547 4.11776 7.1612 4.14357 7.18001C4.15483 7.18821 4.15864 7.19447 4.16015 7.19802C4.1614 7.20097 4.16408 7.2089 4.16068 7.22664C4.15283 7.26757 4.11582 7.34327 4.00385 7.46321L4.0038 7.46316L4.00119 7.46616C3.96054 7.513 3.89011 7.56003 3.81367 7.56308C3.74631 7.56577 3.64331 7.53523 3.52728 7.36364C3.37282 7.13521 3.14439 7.11756 2.91977 7.10558C2.90569 7.10483 2.89149 7.1041 2.87715 7.10337C2.65694 7.09213 2.4054 7.0793 2.10366 6.94569C1.94184 6.87404 1.76397 6.8981 1.64645 6.98852C1.58681 7.03441 1.54011 7.09991 1.52537 7.18037C1.51043 7.26194 1.53066 7.34624 1.58216 7.42406C2.52914 8.85508 4.94941 10.5278 9.58472 9.41404C11.2127 9.02286 12.338 8.97348 13.0806 9.11066C13.8227 9.24775 14.1631 9.56565 14.2681 9.89594C14.3204 10.0606 14.4439 10.2251 14.5796 10.3141C14.6472 10.3584 14.7313 10.3927 14.8191 10.3827C14.9151 10.3718 14.99 10.3111 15.036 10.2175C15.3483 9.58181 15.3475 8.75999 14.7498 8.0342C14.1564 7.31371 12.9872 6.70249 10.9938 6.44154Z" fill="#FFEE65" stroke="#3C3C3C" stroke-width="0.219054"/>
<path d="M11.2059 6.87393C14.008 7.08132 14.9356 8.53851 14.8527 9.62652C14.8316 9.90405 14.4834 9.80639 14.3869 9.5453C14.1378 8.87099 13.4326 8.21271 11.7256 8.56101C6.94205 9.53709 6.25774 9.69667 4.54147 9.08407C2.82521 8.47147 1.75764 7.41117 1.93182 7.31164C2.33697 7.08012 2.87739 7.90884 2.96448 7.46094C3.01431 7.20468 3.69179 8.02429 4.05929 7.90882C4.93038 7.6351 4.59616 6.72485 4.05929 6.7393C1.74808 6.80151 1.06487 5.18804 1.68305 5.48272C1.94426 5.60724 3.37254 6.41435 3.12622 5.94306C2.84009 5.39562 3.13516 5.36355 3.37508 5.66934C4.00961 6.47805 7.20389 6.57774 11.2059 6.87393Z" fill="#FF81B1"/>
</svg>
