<svg width="2038" height="1071" viewBox="0 0 2038 1071" fill="none" xmlns="http://www.w3.org/2000/svg">
<path d="M1431.3 350.043L1431.17 350.026L1431.04 350.015C1306.57 339.241 1186.62 333.587 1075.09 328.329L1073.99 328.277C962.089 323.001 858.754 318.112 767.599 308.847C676.407 299.578 597.799 285.962 535.281 263.383C472.78 240.809 426.96 209.495 400.48 165.214C397.246 159.807 391.603 156.726 385.922 157.241C379.816 157.794 374.986 162.409 374.214 169.342C372.294 186.594 373.422 211.13 382.731 241.045C383.239 242.678 382.83 244.283 381.919 245.39C381.049 246.449 379.848 246.938 378.465 246.667C346.343 240.362 303.085 227.44 261.074 206.102C219.032 184.748 178.619 155.16 151.687 115.712C147.255 109.22 139.717 107.117 133.447 108.567C126.973 110.064 121.169 115.624 121.716 124.169C125.431 182.163 149.983 252.999 208.963 311.196C268.009 369.459 361.109 414.614 501.121 421.989C501.372 422.002 501.627 422.015 501.886 422.029C507.715 422.334 515.623 422.748 523.554 424.066C531.983 425.468 539.587 427.768 544.553 431.387C546.946 433.131 548.552 435.056 549.457 437.188C550.348 439.288 550.743 442.017 550.035 445.708C548.562 453.388 542.414 464.671 527.52 480.624L527.446 480.704L527.374 480.786C521.107 488.007 509.956 495.743 497.02 496.26C484.581 496.757 468.734 490.623 452.516 466.638C441.437 450.254 427.153 443.167 410.448 439.824C402.242 438.182 393.41 437.43 384.142 436.88C380.775 436.681 377.376 436.508 373.912 436.333C367.687 436.018 361.252 435.692 354.421 435.176C312.712 432.028 259.592 422.005 193.755 364.897C187.832 359.759 180.16 359.742 174.671 363.126C169.045 366.595 165.773 373.656 168.727 381.316C241.15 569.114 548.823 888.874 1246.81 721.157C1542.85 650.023 1713.03 665.025 1799.01 712.876C1841.72 736.648 1863.49 768.413 1870.11 801.858C1876.77 835.477 1868.28 871.62 1848.83 904.16C1844.62 911.219 1846.09 919.252 1850.34 924.337C1852.49 926.907 1855.52 928.942 1859.16 929.587C1862.91 930.25 1866.77 929.341 1870.19 926.908C1955.92 865.921 2008.83 742.549 1957.83 623.457C1906.85 504.43 1753.18 392.18 1431.3 350.043Z" fill="#F9F9F9" stroke="#F5CAC3" stroke-width="12"/>
<path d="M1420.21 382.21C1852.71 414.221 1976.18 668.395 1925.18 804.589C1921.43 814.604 1905.18 809.458 1903.42 798.909C1887.66 704.317 1778.72 551.014 1489.17 610.096C875.274 735.362 778.43 739.214 558.172 660.596C337.914 581.977 204.92 411.387 241.672 431.097C294.447 459.401 372.871 515.913 412.173 482.597C437.729 460.934 459.244 546.608 508.406 541.401C638.751 527.596 611.172 382.597 537.17 382.597C212.303 382.597 131.763 150.168 175.672 192.097C231.173 245.097 434.673 343.598 412.173 284.598C387.208 219.134 397.817 215.27 407.282 215.749C410.371 215.905 413.257 217.571 415.161 220.008C551 393.906 910.392 344.478 1420.21 382.21Z" fill="#FF81B1"/>
<path d="M833.418 438.838C831.599 445.476 830.69 451.25 830.69 456.161C830.69 458.707 830.417 462.663 829.871 468.028C829.417 473.303 829.189 477.213 829.189 479.759C829.189 488.399 828.735 501.221 827.825 518.226C826.916 535.231 826.461 548.054 826.461 556.693C826.461 563.331 826.961 573.243 827.962 586.429C828.962 599.615 829.462 609.527 829.462 616.166C829.462 621.167 827.689 625.396 824.142 628.852C820.596 632.307 816.185 634.035 810.911 634.035C805.546 634.035 800.908 632.307 796.997 628.852C793.087 625.487 791.132 621.349 791.132 616.439C791.132 609.8 790.814 599.843 790.177 586.566C789.631 573.289 789.359 563.331 789.359 556.693C789.359 551.509 789.45 546.917 789.631 542.916C775.354 543.552 757.712 545.78 736.706 549.6C719.246 552.782 701.786 556.011 684.326 559.284C684.144 565.468 683.507 575.79 682.416 590.249C681.507 602.98 681.052 613.392 681.052 621.486C681.052 626.487 679.279 630.716 675.732 634.171C672.186 637.627 667.775 639.355 662.501 639.355C657.226 639.355 652.816 637.627 649.269 634.171C645.723 630.716 643.949 626.487 643.949 621.486C643.949 612.301 644.722 598.569 646.268 580.291C647.905 562.013 648.724 548.281 648.724 539.096C648.724 527.456 648.996 509.951 649.542 486.58C650.088 463.118 650.36 445.567 650.36 433.927C650.36 428.925 652.134 424.697 655.68 421.241C659.227 417.785 663.637 416.058 668.912 416.058C674.186 416.058 678.597 417.785 682.143 421.241C685.69 424.697 687.463 428.925 687.463 433.927C687.463 440.838 687.19 451.25 686.645 465.164C686.19 478.986 685.963 489.353 685.963 496.265C685.963 498.538 685.644 502.903 685.008 509.36C684.462 515.362 684.235 519.954 684.326 523.137L736.706 513.315C757.167 509.678 774.809 507.586 789.631 507.041C789.995 500.948 790.586 484.579 791.405 457.934C791.587 450.932 793.724 442.884 797.816 433.79C802.908 422.605 808.683 417.012 815.139 417.012C819.959 417.012 824.233 418.604 827.962 421.787C831.963 425.242 833.964 429.562 833.964 434.745C833.964 436.109 833.782 437.473 833.418 438.838Z" fill="#FBFF21"/>
<path d="M920.311 574.488C919.159 574.488 917.068 573.154 914.036 570.487C911.308 568.001 909.277 565.789 907.944 563.849C902.124 567.001 897.001 569.365 892.575 570.942C888.149 572.579 884.451 573.397 881.481 573.397C867.294 573.397 856.958 569.396 850.471 561.393C844.348 553.876 841.286 542.357 841.286 526.837C841.286 512.166 846.318 499.616 856.382 489.189C866.506 478.761 878.571 473.547 892.575 473.547C897.849 473.547 903.76 474.912 910.308 477.64C918.553 481.035 922.675 485.127 922.675 489.916C922.675 491.553 922.069 493.008 920.857 494.281C920.25 496.585 919.765 500.374 919.402 505.648C919.099 510.923 918.917 517.683 918.856 525.928C918.795 533.445 919.311 539.386 920.402 543.751C921.008 546.419 922.918 551.754 926.131 559.756C926.555 560.848 927.253 562.454 928.223 564.576L928.768 566.122C928.768 568.547 927.919 570.548 926.222 572.124C924.524 573.7 922.554 574.488 920.311 574.488ZM901.396 511.287C901.396 508.68 901.548 505.861 901.851 502.829C902.214 499.737 902.73 496.464 903.397 493.008C901.154 491.856 899.214 491.007 897.577 490.462C896 489.916 894.727 489.643 893.757 489.643C884.36 489.643 876.237 493.493 869.386 501.192C862.596 508.831 859.201 517.652 859.201 527.655C859.201 537.598 860.959 545.055 864.475 550.026C867.992 554.997 873.266 557.483 880.298 557.483C886.118 557.483 891.059 556.422 895.121 554.3C897.304 553.148 900.365 550.844 904.306 547.389C902.366 531.323 901.396 519.289 901.396 511.287Z" fill="#FBFF21"/>
<path d="M1016.6 502.961C1016.6 507.326 1016.63 513.873 1016.69 522.603C1016.75 531.333 1016.79 537.881 1016.79 542.246C1016.79 543.58 1016.88 545.611 1017.06 548.339C1017.3 551.067 1017.42 553.098 1017.42 554.431C1017.42 557.038 1016.54 559.16 1014.78 560.797C1013.03 562.495 1010.87 563.343 1008.33 563.343C1003.66 563.343 1000.69 560.464 999.416 554.704C991.838 558.645 983.108 560.615 973.226 560.615C965.284 560.615 958.706 558.857 953.493 555.341C947.733 551.461 944.308 545.792 943.217 538.336C940.852 522.27 939.67 507.962 939.67 495.413C939.67 487.107 940.579 477.65 942.398 467.04C943.247 461.766 946.127 459.129 951.037 459.129C953.644 459.129 955.827 459.978 957.585 461.675C959.343 463.312 960.222 465.434 960.222 468.041C960.222 470.83 959.767 475.285 958.858 481.409C958.009 487.532 957.585 492.2 957.585 495.413C957.585 505.537 957.918 514.207 958.585 521.421C959.252 528.636 960.252 534.425 961.586 538.79C963.587 539.881 965.557 540.73 967.497 541.336C969.437 541.882 971.347 542.155 973.226 542.155C981.35 542.155 989.928 540.851 998.961 538.245L998.87 519.784L998.689 502.142C998.689 489.047 999.264 477.68 1000.42 468.041C1001.08 462.463 1004.02 459.674 1009.24 459.674C1011.84 459.674 1014.03 460.523 1015.78 462.221C1017.54 463.918 1018.36 466.04 1018.24 468.586L1016.6 502.961Z" fill="#FBFF21"/>
<path d="M1102.4 472.743C1100.91 472.743 1099.14 472.672 1097.09 472.531C1095.11 472.389 1093.38 472.318 1091.89 472.318C1090.27 472.318 1085.46 472.849 1077.46 473.91L1079.48 536.611L1079.59 541.279L1079.69 546.69C1079.97 562.18 1076.26 569.925 1068.55 569.925C1065.72 569.925 1063.25 569.005 1061.13 567.166C1059.07 565.327 1058.05 563.029 1058.05 560.27C1058.05 557.583 1058.15 553.551 1058.37 548.176C1058.58 542.8 1058.69 538.769 1058.69 536.081L1056.56 474.122C1051.4 473.91 1043.55 473.309 1033.01 472.318C1026.72 471.47 1023.57 467.969 1023.57 461.815C1023.57 458.703 1024.52 456.121 1026.43 454.07C1028.34 452.019 1030.78 450.994 1033.75 450.994L1056.03 452.797C1056.03 449.19 1055.86 444.38 1055.5 438.368C1055.22 432.286 1055.08 427.9 1055.08 425.213C1055.08 422.242 1056.1 419.802 1058.15 417.892C1060.21 415.912 1062.72 414.922 1065.69 414.922C1072.05 414.922 1075.77 420.12 1076.83 430.517C1077.04 433.134 1077.15 436.282 1077.15 439.96L1076.93 446.113L1076.83 452.691C1085.6 451.559 1090.62 450.994 1091.89 450.994C1099.25 450.994 1104.06 451.347 1106.32 452.054C1110.64 453.469 1112.79 456.793 1112.79 462.027C1112.79 465.139 1111.8 467.721 1109.82 469.772C1107.91 471.753 1105.44 472.743 1102.4 472.743Z" fill="#FBFF21"/>
<path d="M1318.82 476.966C1312.31 501.251 1305.77 523.305 1299.21 543.13C1297.35 548.705 1294.31 554.435 1290.1 560.321C1287.13 564.41 1283.16 566.423 1278.21 566.361C1270.4 566.237 1264.27 558.71 1259.81 543.78C1258.13 538.081 1256.15 527.456 1253.86 511.906C1252.56 514.632 1251.75 516.46 1251.44 517.389C1248.22 525.071 1243.51 536.996 1237.32 553.166C1236.39 555.767 1235 557.843 1233.14 559.392C1230.54 563.542 1226.66 565.711 1221.52 565.896C1218.61 566.02 1215.54 563.418 1212.32 558.091C1208.91 552.701 1206.16 545.762 1204.05 537.275C1202.13 529.593 1199.16 512.867 1195.13 487.095C1194.26 481.52 1193.83 477.152 1193.83 473.993C1193.83 470.585 1195.1 467.767 1197.64 465.536C1200.24 463.244 1203.34 462.098 1206.93 462.098C1213.62 462.098 1217.74 465.412 1219.29 472.041C1220.1 475.51 1220.78 479.785 1221.34 484.865C1222.08 492.175 1222.54 496.481 1222.73 497.782C1223.54 502.614 1224.77 510.513 1226.45 521.478C1231.03 508.902 1236.3 493.259 1242.24 474.55C1244.78 466.497 1249.55 462.47 1256.55 462.47C1263.43 462.47 1267.95 466.961 1270.12 475.944C1271.67 482.263 1273.31 490.471 1275.05 500.569C1277.59 515.252 1279.14 523.987 1279.69 526.775C1280.25 524.854 1285.11 506.021 1294.28 470.276C1295.65 464.948 1299.52 462.284 1305.9 462.284C1309.43 462.284 1312.53 463.43 1315.19 465.722C1317.92 468.014 1319.28 470.864 1319.28 474.271C1319.28 474.891 1319.12 475.789 1318.82 476.966Z" fill="#FBFF21"/>
<path d="M1404.89 580.453C1400.49 580.453 1397.61 578.099 1396.25 573.39C1394.82 568.31 1393.52 561.093 1392.35 551.739C1391.23 542.756 1390.67 535.384 1390.67 529.622C1390.67 528.012 1390.74 525.565 1390.86 522.281C1391.05 518.998 1391.14 516.551 1391.14 514.94C1391.14 503.293 1388.23 497.47 1382.4 497.47C1374.54 497.47 1367.5 501.032 1361.31 508.156C1358.15 511.812 1353.81 518.781 1348.3 529.065C1348.3 552.668 1347.31 566.638 1345.33 570.974C1343.59 574.815 1340.9 576.736 1337.24 576.736C1334.7 576.736 1332.47 575.868 1330.55 574.134C1328.63 572.399 1327.67 570.293 1327.67 567.815C1327.67 566.948 1327.95 565.585 1328.51 563.726C1329 562.177 1329.34 557.655 1329.53 550.159L1329.81 536.406L1330.09 468.105C1330.52 460.424 1330.74 455.251 1330.74 452.587C1330.74 449.427 1330.43 446.454 1329.81 443.666C1329.25 440.816 1328.97 437.873 1328.97 434.838C1328.97 432.236 1329.87 430.099 1331.67 428.426C1333.46 426.691 1335.66 425.824 1338.26 425.824C1343.34 425.824 1346.32 428.55 1347.18 434.002C1348.18 440.011 1348.67 445.431 1348.67 450.264C1348.67 456.768 1348.45 463.552 1348.02 470.614C1347.65 477.367 1347.49 484.151 1347.56 490.965L1347.65 499.143C1352.73 492.328 1358.15 487.248 1363.91 483.903C1369.73 480.496 1375.9 478.792 1382.4 478.792C1392.69 478.792 1399.75 482.137 1403.59 488.828C1406.32 493.536 1407.86 501.466 1408.24 512.617L1408.98 530.366L1410.84 549.694C1411.71 556.943 1412.76 563.323 1414 568.837C1414.25 569.89 1414.37 570.789 1414.37 571.532C1414.37 574.072 1413.44 576.178 1411.58 577.851C1409.72 579.586 1407.49 580.453 1404.89 580.453Z" fill="#FBFF21"/>
<path d="M1459.25 557.853C1447.7 556.16 1438.78 551.903 1432.47 545.082C1425.6 537.551 1423 528.039 1424.68 516.547C1426.63 503.266 1431.48 492.603 1439.24 484.557C1447.67 475.776 1457.74 472.243 1469.44 473.959C1477.92 475.202 1484.63 477.647 1489.57 481.294C1495.64 485.785 1498.14 491.683 1497.07 498.987C1496.32 504.095 1492.76 508.32 1486.37 511.662C1483.55 513.126 1477.71 515.193 1468.87 517.861L1437.57 527.436C1439.81 532.096 1442.89 535.809 1446.81 538.576C1450.79 541.35 1455.61 543.153 1461.28 543.985C1464.81 544.502 1469.04 544.445 1473.99 543.813C1480.26 543.012 1484.46 541.384 1486.6 538.932C1488.74 536.428 1490.81 535.323 1492.8 535.615C1494.59 535.877 1496.07 536.799 1497.24 538.38C1498.48 539.918 1498.97 541.581 1498.7 543.369C1497.87 549.038 1492.59 553.246 1482.84 555.991C1474.52 558.319 1466.65 558.939 1459.25 557.853ZM1467.41 487.75C1461.18 486.836 1455.64 488.502 1450.79 492.748C1445.95 496.942 1441.8 503.742 1438.33 513.148L1463.49 505.411C1473.4 502.272 1480.56 499.331 1484.98 496.587C1481.19 491.857 1475.33 488.911 1467.41 487.75Z" fill="#FBFF21"/>
<path d="M1612.56 548.1C1611.3 556.667 1607.57 560.495 1601.34 559.582C1598.64 559.185 1596.53 558.001 1595.02 556.03C1593.52 554.058 1592.96 551.72 1593.36 549.015L1607.08 455.474C1607.46 452.859 1608.72 450.856 1610.86 449.465C1612.89 448.197 1615.23 447.758 1617.89 448.148C1620.55 448.538 1622.62 449.67 1624.1 451.545C1625.58 453.374 1626.13 455.597 1625.74 458.212L1612.56 548.1ZM1683.16 518.036C1678.7 517.381 1676.29 515.116 1675.93 511.242C1674.18 510.662 1672.35 510.233 1670.46 509.955C1659.59 508.361 1653.94 509.052 1653.5 512.028C1653.24 513.787 1656.17 516.633 1662.27 520.568C1670.59 525.981 1676.17 530.068 1678.99 532.831C1684.83 538.524 1687.31 544.347 1686.44 550.299C1685.3 558.055 1680.83 563.41 1673.03 566.365C1666.75 568.713 1659.36 569.266 1650.89 568.023C1644.89 567.143 1639.55 565.415 1634.86 562.839C1628.46 559.322 1625.63 555.106 1626.35 550.191C1627.01 545.682 1630.02 543.821 1635.39 544.608C1637.46 544.912 1640.37 546.006 1644.1 547.889C1647.83 549.772 1650.75 550.869 1652.87 551.179C1662.03 552.522 1666.9 551.348 1667.48 547.657C1667.82 545.357 1665.02 542.343 1659.07 538.615C1650.38 533.15 1644.86 529.323 1642.51 527.136C1636.81 521.74 1634.43 515.84 1635.37 509.437C1636.7 500.374 1642.39 494.969 1652.46 493.221C1658.37 492.199 1667.07 492.531 1678.57 494.217C1683.08 494.879 1686.33 495.954 1688.32 497.444C1691.07 499.458 1692.13 502.585 1691.51 506.824C1690.32 514.94 1687.53 518.677 1683.16 518.036Z" fill="#FBFF21"/>
<path d="M1528.83 546.569C1519.13 540.97 1512.68 534.012 1509.47 525.694C1506 516.54 1507.05 507.135 1512.63 497.48C1519.07 486.323 1527.17 478.529 1536.94 474.098C1547.58 469.254 1557.81 469.668 1567.63 475.341C1574.76 479.454 1579.88 484.012 1583 489.017C1586.82 495.174 1586.96 501.32 1583.42 507.457C1580.94 511.748 1576.27 514.253 1569.38 514.972C1566.35 515.278 1560.41 515.055 1551.58 514.303L1520.26 511.757C1520.61 516.706 1522.04 521.11 1524.56 524.969C1527.13 528.852 1530.79 532.169 1535.55 534.919C1538.52 536.628 1542.31 538.077 1546.95 539.266C1552.83 540.773 1557.16 540.811 1559.93 539.379C1562.72 537.904 1564.96 537.649 1566.63 538.616C1568.14 539.483 1569.13 540.83 1569.62 542.658C1570.18 544.467 1570.02 546.123 1569.16 547.625C1566.41 552.388 1560.2 554.268 1550.54 553.267C1542.29 552.394 1535.05 550.162 1528.83 546.569ZM1560.95 486.927C1555.71 483.905 1550.18 483.429 1544.35 485.498C1538.54 487.525 1532.43 492.12 1526.01 499.282L1551.19 501.293C1561.14 502.001 1568.57 501.914 1573.48 501.033C1571.78 495.469 1567.6 490.768 1560.95 486.927Z" fill="#FBFF21"/>
<path d="M1140.08 585.08C1125.59 585.08 1113.74 581.624 1104.52 574.713C1094.34 567.074 1089.24 556.313 1089.24 542.43C1089.24 527.092 1093.27 514.118 1101.34 503.509C1110.31 491.747 1122.4 485.867 1137.62 485.867C1148.17 485.867 1156.93 487.564 1163.9 490.959C1173.06 495.445 1177.63 502.417 1177.63 511.875C1177.63 518.544 1173.91 524.455 1166.45 529.608C1163.05 531.972 1156.23 535.428 1145.99 539.975L1115.34 553.524C1118.25 556.677 1121.77 559.041 1125.89 560.617C1130.01 562.194 1134.74 562.982 1140.08 562.982C1148.2 562.982 1155.08 561.315 1160.72 557.98C1165.75 555.01 1169.78 553.524 1172.81 553.524C1179.12 553.524 1182.27 556.586 1182.27 562.709C1182.27 569.62 1177.21 575.258 1167.09 579.623C1158.6 583.261 1149.6 585.08 1140.08 585.08ZM1137.62 507.874C1131.98 507.874 1127.16 509.753 1123.16 513.512C1119.16 517.27 1115.95 522.909 1113.52 530.426C1120.37 527.455 1127.19 524.515 1133.98 521.605C1142.17 517.907 1148.69 514.482 1153.54 511.329C1149.47 509.025 1144.17 507.874 1137.62 507.874Z" fill="#FBFF21"/>
</svg>
